HIERARCHY
ROOT Hips
{
	OFFSET 0.0000 0.0000 0.0000
	CHANNELS 6 Xposition Yposition Zposition Zrotation Xrotation Yrotation
	JOINT Ab
	{
		OFFSET -0.0000 8.0846 -0.0000
		CHANNELS 3 Zrotation Xrotation Yrotation
		JOINT Chest
		{
			OFFSET -0.0000 25.0068 -0.0000
			CHANNELS 3 Zrotation Xrotation Yrotation
			JOINT Neck
			{
				OFFSET -0.0000 25.0068 0.0000
				CHANNELS 3 Zrotation Xrotation Yrotation
				JOINT Head
				{
					OFFSET -0.0000 10.7556 0.0000
					CHANNELS 3 Zrotation Xrotation Yrotation
					End Site
					{
						OFFSET -0.0000 16.6222 0.0000
					}
				}
			}
			JOINT LeftCollar
			{
				OFFSET -0.0000 25.0068 0.0000
				CHANNELS 3 Zrotation Xrotation Yrotation
				JOINT LeftShoulder
				{
					OFFSET 19.5556 -0.0000 0.0000
					CHANNELS 3 Zrotation Xrotation Yrotation
					JOINT LeftElbow
					{
						OFFSET 27.1828 0.0000 0.0000
						CHANNELS 3 Zrotation Xrotation Yrotation
						JOINT LeftWrist
						{
							OFFSET 23.3157 0.0000 0.0000
							CHANNELS 3 Zrotation Xrotation Yrotation
							End Site
							{
								OFFSET 0.0000 -14.6667 0.0000
							}
						}
					}
				}
			}
			JOINT RightCollar
			{
				OFFSET -0.0000 25.0068 0.0000
				CHANNELS 3 Zrotation Xrotation Yrotation
				JOINT RightShoulder
				{
					OFFSET -19.5556 0.0000 0.0000
					CHANNELS 3 Zrotation Xrotation Yrotation
					JOINT RightElbow
					{
						OFFSET -27.1828 0.0000 0.0000
						CHANNELS 3 Zrotation Xrotation Yrotation
						JOINT RightWrist
						{
							OFFSET -23.3157 0.0000 0.0000
							CHANNELS 3 Zrotation Xrotation Yrotation
							End Site
							{
								OFFSET -0.0000 -14.6667 0.0000
							}
						}
					}
				}
			}
		}
	}
	JOINT LeftHip
	{
		OFFSET 11.7333 0.0000 0.0000
		CHANNELS 3 Zrotation Xrotation Yrotation
		JOINT LeftKnee
		{
			OFFSET -0.0000 -40.8688 0.0000
			CHANNELS 3 Zrotation Xrotation Yrotation
			JOINT LeftAnkle
			{
				OFFSET -0.0000 -44.4337 0.0000
				CHANNELS 3 Zrotation Xrotation Yrotation
				End Site
				{
					OFFSET -0.0000 -4.8889 16.6222
				}
			}
		}
	}
	JOINT RightHip
	{
		OFFSET -11.7333 0.0000 0.0000
		CHANNELS 3 Zrotation Xrotation Yrotation
		JOINT RightKnee
		{
			OFFSET -0.0000 -40.8688 0.0000
			CHANNELS 3 Zrotation Xrotation Yrotation
			JOINT RightAnkle
			{
				OFFSET -0.0000 -44.4337 0.0000
				CHANNELS 3 Zrotation Xrotation Yrotation
				End Site
				{
					OFFSET -0.0000 -4.8889 16.6222
				}
			}
		}
	}
}
MOTION
Frames: 8
Frame Time: 0.010000
-2.2715 88.6851 187.4641 2.2962 0.2786 175.3538 1.2395 359.5430 358.7371 359.6780 11.7726 358.7657 3.0699 341.1752 2.0720 1.1724 2.2830 1.5381 338.3612 358.5082 7.8329 300.5866 30.5371 355.5838 16.9061 354.2173 322.4205 82.1046 0.9022 341.5942 22.2324 359.1737 355.7166 58.3691 44.7959 9.5536 337.4596 354.1339 28.8588 276.5345 352.7816 19.9589 1.9666 358.6770 357.2178 358.9513 10.6966 358.9779 358.5419 351.8320 22.0202 1.0775 352.2900 359.5988 358.6180 19.5998 8.8357 356.0495 345.1405 337.8466 
-2.2735 88.6866 187.4579 2.2948 0.2830 175.3510 1.2222 359.5681 358.7403 359.6887 11.7805 358.7675 3.0826 341.1476 2.0734 1.1352 2.3305 1.5374 338.3611 358.4873 7.8707 300.5837 30.6904 355.5643 17.0089 354.1811 322.4240 82.0320 0.8982 341.6892 22.2298 359.1600 355.7113 58.3218 44.8073 9.5997 337.4418 354.1077 28.9099 276.5699 352.7614 20.0024 1.9687 358.6833 357.2029 358.9376 10.7024 358.9733 358.2127 351.7514 21.9792 1.0771 352.2967 359.6124 358.6125 19.6067 8.8548 356.0542 345.1253 337.8262 
-2.2765 88.6885 187.4505 2.2935 0.2913 175.3509 1.2191 359.6042 358.7320 359.6840 11.7721 358.7616 3.0562 341.1328 2.0624 1.1491 2.3783 1.5327 338.3557 358.4986 7.8852 300.5897 30.7531 355.5663 16.9488 354.2147 322.4517 82.3448 0.8059 341.8690 22.2365 359.1547 355.6993 58.2590 44.8449 9.6457 337.4592 354.0885 28.9564 276.5881 352.8354 20.0110 1.9649 358.6997 357.2036 358.9345 10.6963 358.9886 358.4001 351.7896 21.9985 1.0702 352.3144 359.6356 358.6232 19.5974 8.8514 356.0595 345.1108 337.8180 
-2.2787 88.6907 187.4455 2.2944 0.2932 175.3531 1.2160 359.6319 358.7238 359.6813 11.7738 358.7539 3.0391 341.1169 2.0680 1.1614 2.4124 1.5280 338.3534 358.4958 7.8963 300.5856 30.7861 355.5691 16.9526 354.1954 322.4273 82.3254 0.7909 341.8831 22.2398 359.1519 355.6952 58.2093 44.8826 9.6879 337.4575 354.0912 28.9900 276.5954 352.8570 20.0158 1.9666 358.7007 357.1968 358.9291 10.7040 358.9763 358.5680 351.8096 22.0402 1.0676 352.3227 359.6507 358.6290 19.5963 8.8321 356.0897 345.0916 337.8371 
-2.2804 88.6922 187.4390 2.2950 0.3005 175.3532 1.1923 359.6511 358.7245 359.7219 11.8198 358.7499 2.9890 341.0439 2.0670 1.1883 2.4670 1.5411 338.3509 358.4750 7.9221 300.5675 30.8340 355.5449 17.0318 354.1458 322.3641 81.9789 0.8665 341.7637 22.2012 359.1410 355.6834 58.1541 44.9397 9.7710 337.4096 354.0806 29.0230 276.6012 352.8691 20.0120 1.9704 358.7099 357.1906 358.9169 10.7083 358.9672 358.5575 351.7927 22.0467 1.0645 352.3400 359.6729 358.6405 19.5858 8.7901 356.0794 345.0761 337.8501 
-2.2851 88.6939 187.4299 2.2906 0.3135 175.3533 1.1329 359.6437 358.7361 359.8523 11.9677 358.7497 2.8175 340.8392 2.0368 1.2638 2.5842 1.5370 338.3559 358.4614 7.9747 300.5328 30.9805 355.4352 17.0549 354.1536 322.3807 82.0068 0.8357 341.8335 22.0738 359.1341 355.6064 58.0024 44.9979 10.0224 337.4265 354.0683 29.0614 276.5579 352.9078 20.0133 1.9613 358.7278 357.1771 358.9119 10.7077 358.9970 358.5650 351.7975 22.0365 1.0522 352.3650 359.6988 358.6576 19.5758 8.7500 356.0876 345.0414 337.8572 
-2.2902 88.6952 187.4237 2.2841 0.3025 175.3630 1.1089 359.6473 358.7353 359.8690 11.9908 358.7468 2.8089 340.8131 2.0233 1.2497 2.6031 1.5206 338.3533 358.4735 7.9631 300.5265 30.9961 355.4317 17.0328 354.1884 322.3914 82.0271 0.8046 341.8251 22.0610 359.1561 355.5855 57.9501 44.9961 10.0935 337.4530 354.0655 29.1068 276.5601 352.9277 20.0516 1.9555 358.7128 357.1694 358.9043 10.7190 358.9861 358.5939 351.7955 22.0522 1.0350 352.3610 359.7180 358.6704 19.5748 8.7676 356.0969 345.0318 337.8328 
-2.2962 88.6968 187.4220 2.2822 0.2885 175.3737 1.1058 359.6655 358.7302 359.8607 11.9896 358.7440 2.8156 340.8149 2.0245 1.2377 2.5929 1.5188 338.3608 358.4746 7.9609 300.5113 31.0329 355.4285 17.0433 354.1757 322.3829 82.0357 0.8084 341.8557 22.0557 359.1484 355.5718 57.9106 45.0274 10.1471 337.3726 354.0396 29.1633 276.6601 353.0065 19.8707 1.9532 358.6866 357.1656 358.9007 10.7415 358.9784 358.5932 351.7789 22.0513 1.0239 352.3507 359.7435 358.6892 19.5762 8.7350 356.0879 345.0307 337.8259 
